# Blender 5.0.1
# www.blender.org
mtllib cloud.mtl
o low_poly_cloud_v1
v 9.634703 6.087774 -52.170456
v 9.918702 2.603774 -50.894455
v 9.428702 4.099774 -48.082455
v 9.712703 7.175774 -48.044456
v 11.950703 6.091774 -45.158455
v 13.342703 9.073774 -46.356453
v 15.768703 5.537774 -45.274456
v 16.278702 6.181774 -45.814453
v 15.854702 6.659774 -45.924454
v 15.830703 7.077774 -46.148453
v 15.754703 8.169774 -46.724457
v 13.068703 9.975775 -49.252457
v 15.856703 8.413774 -47.774456
v 15.416702 9.557775 -49.670456
v 15.928703 9.083775 -49.052456
v 13.944702 9.651774 -51.046455
v 13.702703 9.551774 -51.236454
v 13.046702 9.177774 -52.114456
v 11.302702 8.981774 -51.580456
v 13.100702 7.491774 -53.396454
v 12.940702 8.885775 -52.292458
v 13.194702 6.655774 -53.894455
v 13.320703 5.463774 -54.026455
v 12.376702 3.079774 -53.700455
v 13.370703 5.397774 -54.054455
v 14.014703 4.389774 -53.836456
v 14.878702 3.311774 -53.592453
v 13.846703 0.735774 -51.314453
v 15.110703 2.987774 -53.260456
v 15.752703 2.711774 -52.918457
v 12.002703 0.747774 -48.828453
v 16.234703 1.769774 -47.348457
v 17.570702 2.259774 -51.076454
v 17.776703 3.197774 -50.018456
v 17.626701 3.901774 -48.168457
v 17.718702 2.919774 -50.344456
v 17.690702 2.617774 -50.818455
v 16.698704 5.509774 -46.408455
v 13.076702 2.587774 -45.758453
v 17.420704 2.423774 -51.410454
v 26.218704 11.601774 -62.486458
v 27.400703 10.545774 -59.878456
v 27.482704 4.811774 -61.224457
v 27.750702 7.719774 -59.786453
v 28.410702 5.865774 -58.668457
v 21.466702 6.031774 -64.078453
v 22.882702 1.569774 -61.090454
v 16.396702 2.163774 -59.122456
v 13.234703 7.081774 -60.116455
v 15.948703 11.657775 -62.262455
v 20.954704 12.841775 -63.430458
v 18.810703 15.973775 -58.610458
v 13.758703 12.897775 -57.524456
v 17.690702 15.921775 -53.496456
v 12.802702 10.217774 -52.272453
v 17.798702 3.167774 -50.026455
v 18.830704 2.385774 -49.836456
v 21.938702 0.961774 -52.566456
v 22.358704 -0.000226 -55.198456
v 24.526703 1.695774 -53.250458
v 21.714703 0.931774 -52.430454
v 21.530703 0.941774 -52.234455
v 20.912703 1.161774 -51.154457
v 19.878704 1.613774 -49.748455
v 17.088703 0.713774 -54.282455
v 25.612701 2.013774 -53.552456
v 26.840702 1.521774 -55.936455
v 27.276703 2.711774 -53.512455
v 27.696705 3.255774 -54.632454
v 27.718704 3.399774 -54.022453
v 27.764702 3.309774 -55.006454
v 27.852703 3.423774 -55.228455
v 24.428703 15.387774 -55.076454
v 23.614704 16.189774 -57.772453
v 24.414703 15.395775 -55.062454
v 25.076702 15.037775 -55.274456
v 25.792702 14.929774 -57.774456
v 19.972702 15.495774 -53.048454
v 19.674702 15.475775 -52.802456
v 18.788704 15.217774 -52.222454
v 17.700703 14.397775 -50.534454
v 27.264702 12.563774 -60.092453
v 26.498703 13.543775 -59.270454
v 25.738705 14.361774 -58.690456
v 15.708702 11.603774 -50.050453
v 16.262703 12.549774 -49.844456
v 28.218704 5.045774 -57.542458
v 15.802702 6.805774 -45.628456
v 15.252703 12.301775 -47.252457
v 17.428703 12.979774 -43.520454
v 19.924702 8.455774 -39.956455
v 21.192703 12.397775 -39.942455
v 23.208702 16.149775 -42.044456
v 25.912704 11.259774 -39.604454
v 29.506702 12.755774 -42.252457
v 28.962704 14.021774 -42.952454
v 26.802704 17.097775 -46.696457
v 25.352703 18.447773 -47.926456
v 26.982704 16.369774 -45.536453
v 27.836704 15.147775 -44.046455
v 20.080704 17.585773 -47.054455
v 19.390703 16.257774 -51.976456
v 25.590702 17.013773 -53.820457
v 25.244703 17.349773 -52.212456
v 25.650703 17.655773 -51.314453
v 25.570702 16.697773 -54.152458
v 26.622704 0.461774 -51.484455
v 27.926704 3.185774 -53.704453
v 21.818703 0.749774 -52.308456
v 20.698704 0.491774 -47.200455
v 26.618702 1.059774 -44.054455
v 30.800705 3.647774 -44.534454
v 30.898705 3.613774 -45.900455
v 29.204704 2.187774 -50.658455
v 29.128704 2.085774 -51.398457
v 31.118702 4.247774 -44.572456
v 31.102703 4.293774 -44.522453
v 29.692703 7.511774 -40.718456
v 31.202702 7.143774 -42.886456
v 31.248703 7.721774 -42.590454
v 31.062702 8.133775 -42.452454
v 30.246704 10.257774 -41.916454
v 24.696703 4.733774 -40.136456
v 20.710703 2.897774 -42.396454
v 25.448704 15.999774 -54.620453
v 26.270702 17.975775 -48.744453
v 26.570702 17.997774 -48.150455
v 29.544704 12.125774 -42.078453
v 29.976704 10.685775 -41.888454
v 32.928703 14.387774 -64.428452
v 39.756702 15.601775 -64.102455
v 35.956703 6.099774 -63.530457
v 29.332703 7.757774 -61.892456
v 26.888702 15.505774 -60.172455
v 27.448704 20.101774 -56.272453
v 34.058704 19.405773 -62.702454
v 32.382702 23.053774 -57.684456
v 38.494705 22.625774 -59.530457
v 43.170704 20.157774 -59.864456
v 42.726704 18.781775 -60.762455
v 42.576706 16.053774 -62.064453
v 43.370705 19.831774 -59.878456
v 42.850704 15.555775 -62.104454
v 44.474705 20.803774 -56.078453
v 44.468704 21.595774 -54.990456
v 44.670704 20.797773 -55.658455
v 43.906704 20.623774 -57.586456
v 43.376705 19.955774 -59.688454
v 48.214706 16.525774 -50.748455
v 48.340706 16.353773 -50.604454
v 48.308704 16.341774 -50.734455
v 45.198704 20.607775 -54.164455
v 48.354706 16.237774 -50.728455
v 45.246704 10.571774 -60.742455
v 44.562706 9.353774 -61.804455
v 45.014706 11.293775 -61.258453
v 45.750706 10.243774 -59.792458
v 47.262707 7.457774 -55.614456
v 46.976704 9.329775 -56.958458
v 47.408707 8.797774 -55.874458
v 47.192703 6.489774 -55.356453
v 47.194706 6.425774 -55.324455
v 46.008705 10.047774 -59.194458
v 47.306705 6.757774 -55.238457
v 47.808704 9.687775 -55.442455
v 47.168705 6.307774 -55.258453
v 44.050705 2.993774 -57.012455
v 39.918705 0.025774 -53.902458
v 47.052704 6.219774 -55.188454
v 43.072704 2.267774 -51.334457
v 43.070705 2.265774 -51.322456
v 43.626705 2.935774 -52.610455
v 44.356705 3.651774 -53.262455
v 40.208702 1.659774 -47.396454
v 39.474705 1.477774 -46.502457
v 40.216705 1.789774 -46.842453
v 33.700703 -0.000226 -50.070457
v 33.124702 1.067774 -57.416458
v 29.584702 1.455774 -51.252457
v 28.296703 19.783773 -46.540455
v 30.828705 23.335773 -50.468456
v 34.964703 21.433775 -43.842453
v 37.652702 24.287775 -48.848457
v 44.440704 19.787773 -46.454456
v 40.024704 16.791775 -41.434456
v 45.076706 17.723774 -45.454456
v 42.808704 16.209774 -42.892456
v 47.850704 16.785774 -50.082455
v 48.214706 16.317774 -50.302456
v 45.256706 18.001774 -46.134453
v 46.302704 17.751774 -47.992455
v 47.814705 16.817774 -50.042458
v 48.326706 16.093773 -50.462456
v 38.444702 7.177774 -41.496456
v 36.930702 6.337774 -41.320454
v 38.414703 6.225774 -42.042454
v 40.094704 2.011774 -46.314453
v 39.076702 3.093774 -44.968456
v 38.218704 4.539774 -43.384453
v 31.658703 3.909774 -44.306454
v 30.620705 11.259774 -41.082455
v 32.296703 16.473774 -41.062454
v 37.052704 13.145775 -39.794456
v 39.176704 12.119775 -40.546455
v 39.272705 13.111774 -40.700455
v 39.396706 13.317775 -40.774456
v 41.062702 14.791775 -41.626453
v 38.368702 8.007774 -41.288456
v 38.240704 9.005774 -41.030457
v 42.084705 15.839775 -42.410454
v 42.990704 22.971775 -50.444454
v 37.946705 24.663774 -54.394455
v 39.040703 1.345774 -58.754456
v 41.274704 6.389774 -62.560455
v 48.352707 15.861774 -50.710457
v 47.832706 16.805775 -50.076454
v 47.456707 17.381773 -50.826454
v 45.664703 19.695774 -52.328453
v 45.544704 19.893774 -52.630455
v 45.232704 20.509773 -53.890457
v 45.008705 11.301775 -61.262455
v 43.202705 14.319775 -62.036453
v 64.832703 9.945774 -59.194458
v 68.078705 6.393774 -54.482456
v 66.142708 3.289774 -58.722458
v 62.474705 7.989774 -61.078453
v 60.472706 9.647775 -59.058456
v 60.510704 9.689775 -59.014458
v 60.452705 10.139774 -58.518456
v 60.390705 10.493774 -58.126457
v 59.814705 7.565774 -59.792458
v 60.464706 9.539775 -59.110458
v 59.696705 5.445774 -59.858456
v 60.572704 3.553774 -60.404457
v 59.358707 4.885774 -59.726456
v 59.800705 5.663774 -59.896454
v 59.832706 5.833774 -59.902458
v 59.884705 6.447774 -59.892456
v 59.054707 3.259774 -58.670456
v 59.612705 2.059774 -57.026455
v 59.456707 2.467774 -57.614456
v 61.228706 0.749774 -56.050453
v 59.334705 1.925774 -56.568455
v 59.610706 2.305774 -55.130455
v 59.410706 2.225774 -55.688454
v 60.514706 2.969774 -52.258453
v 60.482704 2.689774 -52.930454
v 60.390705 3.387774 -51.528458
v 61.412704 2.965774 -50.878456
v 60.750706 5.021774 -50.526455
v 60.770706 5.061774 -50.526455
v 61.180706 6.435774 -50.478455
v 61.144707 7.273774 -50.386456
v 65.600700 7.715774 -51.316456
v 61.604706 10.443774 -52.732456
v 61.704704 9.957774 -52.396454
v 61.370705 10.743774 -52.916454
v 61.566708 11.281775 -53.332455
v 61.364704 7.577774 -50.636456
v 61.194706 11.031775 -53.358456
v 61.200706 11.177774 -54.060455
v 65.898705 11.023774 -55.870453
v 65.198708 1.983774 -52.786453
v 61.226707 11.161775 -54.128456
v 48.620705 0.541774 -48.578453
v 48.714706 4.003774 -52.128456
v 48.760704 3.927774 -52.024456
v 49.128704 3.557774 -51.438454
v 50.532703 3.057774 -50.152454
v 44.562706 2.323774 -52.642456
v 47.396706 6.201774 -55.258453
v 47.384705 5.779774 -54.808456
v 48.304707 4.659774 -53.072456
v 47.382706 6.395774 -55.352455
v 49.062706 15.365775 -50.652454
v 50.028706 14.537775 -50.750454
v 50.546707 13.523774 -51.466454
v 51.694706 13.195775 -50.822456
v 50.610706 13.221775 -51.760456
v 51.818707 15.983775 -47.470455
v 54.616707 10.249775 -46.950455
v 54.306705 10.399775 -47.536453
v 53.208706 12.041775 -48.406456
v 52.354706 12.815775 -49.636456
v 54.364704 10.219774 -47.440456
v 54.448704 9.891774 -47.304455
v 54.204704 8.711775 -46.794456
v 52.680706 2.973774 -46.148453
v 53.926704 7.737774 -46.790455
v 53.134705 5.373774 -47.420456
v 52.564705 3.955774 -48.306454
v 52.158707 4.801774 -41.282455
v 53.470707 12.167774 -42.732456
v 50.110706 8.925775 -38.392456
v 45.482704 3.253774 -39.088455
v 47.610706 0.699774 -42.556454
v 43.178703 0.033774 -45.092453
v 38.824703 3.995774 -42.066456
v 38.738705 8.441774 -40.108456
v 44.782703 8.347775 -37.226456
v 39.378704 13.189775 -40.564453
v 43.530704 15.577775 -40.372456
v 45.966705 18.231773 -46.204456
v 50.014706 15.721775 -41.994453
v 50.808704 3.079774 -49.708454
v 51.644707 3.417774 -48.884453
v 55.144707 15.389774 -56.194458
v 52.906704 12.717774 -62.176456
v 51.904705 18.043774 -63.320457
v 48.146706 13.617775 -64.428452
v 49.276707 10.163774 -61.978455
v 43.800705 18.097775 -63.102455
v 47.746704 19.003775 -64.070457
v 46.076706 21.583775 -60.330456
v 45.214706 21.659775 -56.292458
v 50.940704 13.385775 -51.764454
v 48.034706 9.179774 -57.142456
v 48.266705 9.273774 -57.702454
v 49.046703 9.511774 -59.208458
v 51.076706 10.209774 -59.658455
v 54.850704 14.953774 -55.778458
v 54.864704 14.935775 -55.998455
v 54.816704 14.771774 -56.404457
v 52.960705 14.583775 -52.718456
v 52.338707 16.599773 -51.378456
v 52.822704 14.459775 -52.512455
v 54.214706 14.895775 -54.738457
v 51.546707 20.295774 -54.078453
v 53.548706 19.643774 -59.656456
v 49.868706 21.771774 -59.694458
v 48.398705 18.537773 -50.836456
v 51.910706 14.057775 -52.102455
v 48.832706 9.511774 -59.056458
v 48.848705 9.513775 -59.076454
v 48.858704 9.515775 -59.088455
v 48.954704 9.515775 -59.156456
v 51.190704 10.281775 -59.650455
v 52.690704 11.617775 -60.288456
v 54.186707 14.037775 -58.144455
v 52.864704 11.973775 -60.252457
v 53.072704 12.347775 -60.068455
v 52.566704 8.845775 -61.702454
v 56.766705 9.591774 -61.502457
v 54.428707 3.749774 -61.150455
v 50.356705 4.769774 -60.142456
v 53.262707 11.931774 -60.640457
v 55.990707 13.911775 -58.690456
v 58.866707 12.395775 -58.894455
v 59.664707 13.277775 -55.898453
v 59.722706 5.749774 -60.088455
v 59.406704 1.841774 -57.140457
v 56.866707 0.015774 -55.230453
v 60.330708 2.475774 -52.394455
v 56.592705 0.907774 -50.680454
v 53.042706 -0.002226 -52.874454
v 52.688705 0.655774 -57.390457
v 50.512707 0.895774 -53.600456
v 49.256706 2.091774 -55.846455
v 47.898705 4.711774 -56.868454
v 47.440704 8.125774 -57.260456
v 53.820705 13.179774 -49.044456
v 55.472706 14.933775 -52.122456
v 59.646706 12.165774 -50.650455
v 56.932705 10.325774 -47.562454
v 60.440704 9.591774 -49.400455
v 59.092705 6.153774 -47.966454
v 59.656704 3.547774 -49.746456
v 55.028706 3.895774 -47.492455
v 51.786705 2.403774 -49.328453
v 55.102707 8.083775 -46.554455
v 58.754707 14.123775 -53.104454
v 55.652706 15.165774 -55.532455
v 56.324707 0.827774 -58.212456
v 57.700706 3.927774 -60.552456
vn -0.9869 -0.1200 -0.1081
vn -0.9957 0.0920 -0.0054
vn -0.7768 0.0640 0.6264
vn -0.5685 0.5211 0.6366
vn 0.0778 0.3402 0.9371
vn 0.3024 0.4603 0.8346
vn 0.2726 0.4665 0.8414
vn 0.3040 0.4609 0.8337
vn 0.3003 0.4615 0.8348
vn 0.3728 0.8954 0.2436
vn 0.3722 0.8954 0.2442
vn 0.2345 0.8555 0.4617
vn 0.2347 0.8554 0.4617
vn 0.1570 0.9824 -0.1008
vn -0.1883 0.9464 -0.2624
vn -0.1868 0.9467 -0.2625
vn -0.1858 0.9471 -0.2618
vn -0.6082 0.7836 0.1268
vn -0.2988 0.5712 -0.7645
vn -0.2981 0.5734 -0.7631
vn -0.4490 0.4195 -0.7889
vn -0.4490 0.4196 -0.7889
vn -0.4420 0.0524 -0.8955
vn -0.4368 0.0501 -0.8982
vn -0.4420 0.0526 -0.8955
vn 0.0587 -0.1754 -0.9827
vn 0.0585 -0.1752 -0.9828
vn 0.0944 -0.6807 -0.7265
vn 0.0940 -0.6806 -0.7266
vn 0.0944 -0.6787 -0.7283
vn -0.4159 -0.7636 -0.4939
vn -0.4347 -0.8424 -0.3184
vn 0.1852 -0.9724 0.1420
vn 0.3780 -0.9257 0.0138
vn 0.8523 -0.4622 0.2450
vn 0.8517 -0.4637 0.2439
vn 0.8521 -0.4627 0.2445
vn 0.8524 -0.4621 0.2447
vn 0.7448 -0.2481 0.6194
vn 0.7461 -0.2479 0.6180
vn 0.3159 -0.4272 0.8472
vn 0.9108 -0.0078 -0.4128
vn 0.0313 -0.8621 0.5057
vn -0.5948 -0.5805 0.5560
vn 0.3494 -0.7702 -0.5336
vn 0.3491 -0.7696 -0.5347
vn 0.7699 -0.0786 0.6333
vn 0.0057 -0.1670 0.9859
vn -0.5470 0.7832 0.2957
vn -0.5997 -0.3184 0.7342
vn -0.8495 0.5140 -0.1195
vn -0.7549 -0.6244 0.2006
vn -0.6927 -0.2972 -0.6572
vn 0.9209 0.1015 -0.3763
vn 0.9205 0.1017 -0.3773
vn 0.9211 0.1011 -0.3761
vn 0.4115 -0.0919 -0.9068
vn 0.3017 -0.4625 -0.8337
vn -0.2829 -0.5941 -0.7530
vn -0.4346 -0.4384 -0.7867
vn -0.4443 -0.1507 -0.8831
vn -0.2431 0.0738 -0.9672
vn -0.3144 0.7260 -0.6116
vn -0.5345 0.7237 -0.4365
vn -0.5339 0.8386 -0.1084
vn -0.7206 0.6619 0.2066
vn -0.9845 0.1373 -0.1091
vn -0.9946 -0.1028 -0.0143
vn -0.9947 -0.1018 -0.0169
vn -0.9945 -0.1036 -0.0135
vn -0.9946 -0.1033 -0.0135
vn -0.7795 -0.0887 0.6201
vn -0.7835 -0.0904 0.6148
vn -0.5523 -0.5843 0.5946
vn -0.5678 -0.5737 0.5903
vn 0.3427 -0.8634 0.3703
vn 0.3405 -0.8643 0.3702
vn 0.3483 -0.8609 0.3709
vn 0.3374 -0.8659 0.3694
vn -0.0879 -0.9654 0.2457
vn -0.0880 -0.9653 0.2459
vn -0.1738 -0.9499 -0.2597
vn -0.7694 -0.6341 -0.0769
vn -0.7697 -0.6334 -0.0803
vn -0.7694 -0.6337 -0.0798
vn 0.3529 -0.8639 0.3594
vn 0.3526 -0.8638 0.3599
vn 0.3535 -0.8633 0.3602
vn 0.2801 -0.9335 -0.2238
vn 0.8658 -0.4931 0.0852
vn 0.8670 -0.4907 0.0868
vn 0.8651 -0.4936 0.0895
vn 0.8662 -0.4923 0.0859
vn 0.5534 0.8291 0.0796
vn 0.4974 0.8610 0.1059
vn 0.4980 0.8607 0.1055
vn 0.1327 0.9619 0.2389
vn 0.1318 0.9611 0.2428
vn 0.1317 0.9611 0.2427
vn 0.0394 0.8886 0.4571
vn 0.0401 0.8888 0.4566
vn 0.4351 0.7535 -0.4929
vn 0.4354 0.7534 -0.4927
vn 0.4349 0.7536 -0.4929
vn 0.4354 0.7534 -0.4928
vn 0.2839 0.7608 -0.5836
vn -0.5440 -0.6919 0.4748
vn -0.5475 -0.6907 0.4724
vn -0.5485 -0.6889 0.4740
vn -0.5477 -0.6895 0.4739
vn -0.5484 -0.6896 0.4730
vn -0.5475 -0.6896 0.4739
vn -0.6565 0.2308 0.7181
vn -0.6576 0.2273 0.7183
vn -0.6571 0.2273 0.7187
vn -0.6578 0.2290 0.7175
vn -0.6578 0.2278 0.7179
vn -0.6775 0.6533 0.3379
vn -0.6774 0.6531 0.3383
vn -0.0450 0.9990 0.0003
vn 0.0538 0.8481 -0.5271
vn -0.8407 0.2818 -0.4624
vn -0.8211 -0.5542 -0.1367
vn -0.8159 -0.5641 -0.1271
vn -0.8206 -0.5551 -0.1359
vn -0.1681 -0.9487 -0.2677
vn 0.5187 -0.7527 -0.4054
vn 0.2000 0.1077 -0.9739
vn 0.9135 0.0185 -0.4065
vn 0.8949 -0.4194 -0.1524
vn 0.8947 -0.4196 -0.1530
vn 0.8951 -0.4192 -0.1521
vn -0.9863 -0.1182 -0.1150
vn -0.9826 -0.1357 -0.1265
vn -0.9827 -0.1358 -0.1263
vn -0.9835 -0.1331 -0.1226
vn -0.9828 -0.1354 -0.1255
vn -0.9826 -0.1356 -0.1270
vn -0.8670 0.0594 0.4947
vn -0.8108 0.0137 0.5852
vn -0.6567 0.2087 0.7247
vn -0.4934 0.6116 0.6185
vn 0.0496 0.4678 0.8825
vn 0.3269 0.5610 0.7606
vn 0.3273 0.5606 0.7607
vn 0.3714 0.8109 0.4522
vn 0.3707 0.8115 0.4518
vn 0.3712 0.8109 0.4523
vn 0.3713 0.8108 0.4524
vn -0.0988 0.9386 0.3307
vn -0.1940 0.9536 -0.2301
vn -0.8702 0.4926 -0.0109
vn -0.1874 0.9527 -0.2394
vn -0.1887 0.9524 -0.2392
vn -0.1874 0.9527 -0.2393
vn -0.2800 0.7041 -0.6525
vn -0.2646 0.6992 -0.6642
vn -0.2798 0.7044 -0.6523
vn -0.2800 0.7037 -0.6530
vn -0.5756 0.4858 -0.6578
vn -0.5731 0.4875 -0.6586
vn 0.3033 -0.6851 -0.6623
vn 0.3016 -0.6852 -0.6629
vn 0.3058 -0.6852 -0.6611
vn 0.0594 -0.7846 -0.6171
vn 0.0524 -0.7760 -0.6286
vn 0.0589 -0.7844 -0.6174
vn -0.0493 -0.9969 -0.0612
vn -0.5756 -0.8004 -0.1672
vn -0.5757 -0.8004 -0.1671
vn -0.5764 -0.8000 -0.1667
vn -0.5762 -0.8001 -0.1668
vn -0.5660 -0.6571 -0.4978
vn 0.0529 -0.9954 0.0801
vn 0.5307 -0.8448 0.0683
vn 0.5395 -0.8398 0.0596
vn 0.5414 -0.8386 0.0600
vn 0.5417 -0.8385 0.0587
vn 0.8830 -0.4633 0.0749
vn 0.7424 -0.3576 0.5665
vn 0.7386 -0.3529 0.5744
vn 0.7376 -0.3554 0.5741
vn 0.7376 -0.3555 0.5741
vn 0.7553 0.1280 0.6427
vn 0.7559 0.1261 0.6424
vn 0.4053 -0.5809 0.7059
vn 0.1765 -0.1126 0.9778
vn -0.0225 -0.0771 0.9968
vn -0.2942 -0.4188 0.8591
vn -0.0411 -0.7388 0.6727
vn 0.4223 -0.5486 0.7216
vn -0.1506 -0.8838 0.4430
vn -0.7097 -0.6292 0.3169
vn 0.4618 -0.6826 -0.5663
vn -0.3298 -0.6484 -0.6862
vn 0.0425 0.5504 -0.8338
vn 0.0417 0.5514 -0.8332
vn 0.3092 0.9317 -0.1906
vn 0.3813 0.8121 0.4418
vn 0.5008 0.2592 0.8259
vn 0.4983 0.2603 0.8270
vn 0.5007 0.2596 0.8258
vn 0.5010 0.2584 0.8260
vn -0.5095 0.6889 0.5156
vn -0.0671 0.0180 0.9976
vn -0.6978 -0.3684 0.6143
vn -0.5631 0.8061 0.1819
vn -0.8065 0.5292 -0.2636
vn -0.8069 0.5280 -0.2647
vn -0.8067 0.5292 -0.2629
vn -0.8063 0.5296 -0.2635
vn -0.7557 -0.6304 0.1775
vn -0.7561 -0.6298 0.1778
vn -0.7554 -0.6304 0.1791
vn -0.7516 -0.6309 0.1928
vn -0.7557 -0.6301 0.1785
vn -0.7632 -0.6137 0.2022
vn 0.0626 -0.0849 -0.9944
vn -0.2830 -0.2049 -0.9370
vn -0.5760 -0.0002 -0.8174
vn -0.3676 0.6273 -0.6865
vn -0.6255 0.3760 -0.6837
vn -0.5286 0.5929 -0.6075
vn -0.1299 0.7809 -0.6111
vn 0.1740 0.5590 -0.8107
vn 0.2386 0.5595 -0.7937
vn 0.5122 0.3468 -0.7857
vn 0.5109 0.3484 -0.7859
vn 0.5116 0.3476 -0.7858
vn 0.5127 0.3452 -0.7861
vn 0.7871 0.5007 -0.3602
vn 0.7910 0.4967 -0.3572
vn 0.7904 0.4976 -0.3574
vn 0.7915 0.4960 -0.3571
vn 0.7911 0.5005 -0.3516
vn 0.8692 0.4248 -0.2532
vn 0.8670 0.4301 -0.2517
vn 0.8899 0.3789 -0.2540
vn 0.8719 -0.0666 -0.4852
vn 0.8718 -0.0663 -0.4854
vn 0.8798 -0.1811 -0.4395
vn 0.8802 -0.1806 -0.4389
vn 0.7932 -0.2519 -0.5545
vn 0.8800 -0.1810 -0.4391
vn 0.8801 -0.1809 -0.4390
vn 0.8798 -0.1813 -0.4393
vn 0.8799 -0.1808 -0.4395
vn 0.8795 -0.1818 -0.4397
vn 0.7481 -0.4418 -0.4951
vn 0.7467 -0.4376 -0.5010
vn 0.6630 -0.7242 0.1897
vn 0.6633 -0.7241 0.1890
vn 0.5972 -0.8014 -0.0344
vn 0.6385 -0.7601 -0.1207
vn 0.6385 -0.7602 -0.1200
vn 0.6385 -0.7603 -0.1200
vn 0.4551 -0.8682 0.1978
vn 0.4559 -0.8678 0.1976
vn 0.4554 -0.8682 0.1971
vn 0.1263 -0.9720 0.1983
vn -0.0804 -0.9873 -0.1372
vn -0.3021 -0.9465 -0.1139
vn -0.4542 -0.8664 -0.2077
vn -0.4553 -0.8660 -0.2070
vn -0.8169 -0.5541 0.1603
vn -0.8168 -0.5538 0.1616
vn -0.8167 -0.5539 0.1617
vn -0.8163 -0.5549 0.1604
vn -0.6658 -0.5446 -0.5100
vn -0.6663 -0.5441 -0.5099
vn -0.8123 0.4289 0.3952
vn -0.8124 0.4289 0.3951
vn -0.8124 0.4296 0.3944
vn -0.7136 0.6953 0.0856
vn -0.7141 0.6947 0.0861
vn -0.7129 0.6961 0.0849
vn -0.7629 0.6405 0.0874
vn -0.3863 0.7942 0.4691
vn -0.2178 0.8936 0.3925
vn 0.2930 0.7544 0.5874
vn 0.3025 0.6775 0.6704
vn 0.4819 0.4978 0.7210
vn 0.4817 0.4983 0.7209
vn 0.8067 0.4443 0.3895
vn 0.8068 0.4394 0.3951
vn 0.8068 0.4396 0.3947
vn 0.8075 0.4394 0.3934
vn 0.9025 0.1680 0.3966
vn 0.3562 -0.4733 0.8057
vn 0.3084 -0.6139 0.7267
vn 0.3062 -0.6146 0.7270
vn 0.3073 -0.6143 0.7268
vn 0.3078 -0.6139 0.7269
vn -0.0408 -0.7387 0.6728
vn -0.2938 -0.4187 0.8593
vn -0.2938 -0.4171 0.8601
vn -0.2942 -0.4203 0.8583
vn -0.2938 -0.4182 0.8595
vn -0.5566 -0.3988 0.7288
vn -0.5577 -0.3981 0.7284
vn -0.5579 -0.3983 0.7280
vn -0.7277 -0.1294 0.6736
vn -0.5844 0.1831 0.7905
vn -0.5775 0.1907 0.7938
vn -0.5838 0.1844 0.7907
vn -0.5839 0.1847 0.7905
vn -0.2143 0.0651 0.9746
vn 0.0282 0.3908 0.9200
vn 0.3771 0.1063 0.9200
vn 0.3772 0.1035 0.9203
vn 0.3769 0.1058 0.9202
vn 0.3765 0.1070 0.9202
vn -0.1309 -0.2146 0.9679
vn 0.2305 -0.2166 0.9487
vn 0.2296 -0.2159 0.9490
vn 0.2326 -0.2173 0.9480
vn 0.2311 -0.2167 0.9485
vn 0.4848 0.1693 0.8581
vn 0.4848 0.1692 0.8581
vn 0.0225 0.4796 0.8772
vn 0.3460 0.7906 0.5052
vn 0.2608 0.9621 0.0791
vn 0.4111 0.9009 -0.1390
vn 0.3824 0.8721 -0.3053
vn 0.8422 0.5269 0.1144
vn -0.1516 0.9867 0.0589
vn -0.2290 0.9695 -0.0872
vn -0.4227 0.6054 0.6744
vn -0.5870 0.4278 0.6873
vn -0.5870 0.4280 0.6872
vn -0.8287 0.4964 -0.2588
vn -0.8283 0.4968 -0.2592
vn -0.8280 0.4973 -0.2590
vn -0.7087 -0.1735 -0.6839
vn -0.6205 -0.6625 0.4195
vn -0.6207 -0.6659 0.4140
vn -0.6210 -0.6623 0.4191
vn -0.6220 -0.6613 0.4193
vn -0.5209 -0.6581 -0.5437
vn -0.5200 -0.6586 -0.5438
vn -0.5201 -0.6583 -0.5442
vn -0.4065 -0.8165 0.4099
vn -0.0135 -0.9655 -0.2602
vn -0.1150 -0.7402 -0.6625
vn 0.1714 -0.6407 -0.7484
vn 0.4311 -0.6573 -0.6181
vn -0.1125 -0.8404 0.5302
vn 0.5104 -0.7442 0.4308
vn 0.3920 -0.8673 -0.3069
vn 0.6018 -0.5110 -0.6139
vn 0.3129 -0.1064 -0.9438
vn 0.9937 0.0001 0.1121
vn 0.9948 0.0022 0.1022
vn 0.7457 0.6451 0.1670
vn 0.7572 0.6231 0.1958
vn 0.7371 0.6603 0.1438
vn 0.7341 0.6644 0.1405
vn 0.7347 0.6635 0.1417
vn 0.7355 0.6623 0.1429
vn 0.7348 0.6631 0.1427
vn 0.7343 0.6637 0.1426
vn 0.7412 0.6560 0.1426
vn 0.7352 0.6626 0.1428
vn 0.6208 0.0751 -0.7804
vn 0.5396 0.1088 -0.8349
vn 0.5998 0.1271 -0.7900
vn 0.5404 0.1088 -0.8343
vn 0.4158 0.8362 -0.3575
vn -0.0477 0.9267 -0.3728
vn -0.5387 0.8293 -0.1484
vn -0.9046 0.3349 -0.2637
vn -0.9046 0.3346 -0.2640
vn -0.9046 0.3343 -0.2645
vn -0.9045 0.3346 -0.2644
vn -0.7925 -0.1176 -0.5984
vn -0.7875 -0.1172 -0.6050
vn -0.7933 -0.1176 -0.5973
vn -0.7930 -0.1173 -0.5978
vn -0.3317 -0.6472 -0.6863
vn 0.1848 -0.1325 -0.9738
vn -0.0132 0.3279 -0.9446
vn 0.8605 0.1345 -0.4914
vn 0.5924 0.0596 -0.8034
vn -0.0537 0.7450 -0.6648
vn -0.0736 0.7343 -0.6748
vn -0.0735 0.7344 -0.6748
vn -0.0714 0.7352 -0.6740
vn -0.4484 0.4202 -0.7889
vn -0.4538 0.4137 -0.7893
vn -0.4405 0.0546 -0.8961
vn -0.4411 0.0543 -0.8958
vn -0.4454 0.0522 -0.8938
vn -0.4453 0.0523 -0.8939
vn -0.4463 0.0520 -0.8934
vn -0.4415 0.0532 -0.8957
vn -0.6929 -0.2971 -0.6570
vn -0.3693 -0.8065 -0.4617
vn -0.3720 -0.8050 -0.4621
vn -0.3732 -0.8046 -0.4619
vn -0.5585 -0.7692 0.3105
vn -0.5613 -0.7672 0.3105
vn -0.5463 -0.7636 0.3442
vn -0.5396 -0.7667 0.3477
vn -0.5355 -0.7686 0.3499
vn -0.5383 -0.7676 0.3480
vn -0.5989 -0.3186 0.7347
vn 0.2028 -0.1014 0.9739
vn 0.2138 -0.0977 0.9720
vn 0.2229 -0.0969 0.9700
vn 0.2126 -0.0978 0.9722
vn 0.1104 0.5805 0.8067
vn 0.1110 0.5810 0.8063
vn 0.1120 0.5820 0.8054
vn 0.1103 0.5825 0.8053
vn 0.1106 0.5807 0.8066
vn -0.4727 0.6404 0.6054
vn -0.5581 0.8133 0.1644
vn 0.3728 0.7390 0.5612
vn -0.1049 0.9554 -0.2762
vn 0.7751 0.4860 0.4037
vn 0.7219 -0.2190 0.6565
vn 0.3817 -0.2546 0.8885
vn -0.0392 -0.9180 0.3947
vn 0.3950 -0.9084 -0.1370
vn 0.1271 -0.8251 -0.5505
vn 0.0735 0.9810 -0.1793
vn 0.0776 0.9806 -0.1802
vn 0.1020 0.9763 -0.1907
vn 0.2683 -0.2561 -0.9287
vn 0.8397 -0.5429 0.0141
vn 0.8761 0.2992 -0.3780
vn 0.3519 -0.6748 -0.6487
vn 0.3541 -0.6742 -0.6481
vn 0.3536 -0.6743 -0.6483
vn 0.3532 -0.6744 -0.6484
vn 0.3540 -0.6869 -0.6347
vn 0.3565 -0.6876 -0.6325
vn 0.3565 -0.6875 -0.6326
vn -0.2050 -0.4400 -0.8743
vn -0.2008 -0.4432 -0.8737
vn -0.2014 -0.4333 -0.8785
vn -0.2040 -0.4388 -0.8751
vn -0.2009 -0.4441 -0.8732
vn -0.2009 -0.4440 -0.8732
vn -0.3171 -0.4411 -0.8395
vn 0.5044 0.6563 -0.5611
vn 0.5016 0.6547 -0.5654
vn 0.5066 0.6567 -0.5587
vn 0.5059 0.6564 -0.5596
vn 0.0397 0.3174 -0.9475
vn 0.5033 0.6552 -0.5634
vn 0.5033 0.6550 -0.5636
vn 0.5030 0.6547 -0.5642
vn 0.5035 0.6550 -0.5634
vn 0.8531 0.3843 -0.3529
vn 0.8536 0.3845 -0.3516
vn 0.8539 0.3844 -0.3509
vn 0.8534 0.3848 -0.3516
vn 0.8877 0.0371 -0.4589
vn 0.8875 0.0412 -0.4590
vn 0.9465 -0.2713 -0.1748
vn 0.9469 -0.2710 -0.1730
vn 0.9426 -0.2721 -0.1935
vn 0.9468 -0.2710 -0.1734
vn 0.9465 -0.2715 -0.1744
vn 0.9538 -0.2329 0.1898
vn 0.9458 -0.1082 0.3062
vn 0.7991 -0.0241 0.6007
vn 0.3688 -0.4036 0.8373
vn 0.3707 -0.6245 0.6874
vn -0.1686 -0.8402 0.5153
vn 0.1224 -0.9914 0.0465
vn 0.4660 -0.8790 0.1012
vn -0.3283 -0.7742 0.5412
vn -0.4131 -0.3737 0.8305
vn -0.4057 -0.3625 0.8391
vn -0.4242 0.1431 0.8942
vn -0.8153 0.1632 0.5556
vn -0.8215 0.1643 0.5460
vn -0.8230 0.1628 0.5441
vn -0.7751 0.5668 0.2790
vn -0.4637 0.7737 0.4318
vn -0.4648 0.7744 0.4293
vn -0.4650 0.7739 0.4301
vn -0.2655 0.9145 0.3054
vn -0.2664 0.9148 0.3035
vn -0.2644 0.9147 0.3058
vn -0.2644 0.9149 0.3052
vn 0.0912 0.8915 0.4438
vn 0.3852 0.9070 0.1703
vn 0.7180 0.6427 0.2673
vn 0.2058 0.4606 0.8635
vn 0.1511 0.4163 0.8966
vn -0.9082 -0.2101 0.3620
vn -0.7924 -0.5986 0.1173
vn -0.2438 0.3512 0.9040
vn -0.9200 -0.1729 0.3516
vn -0.9200 -0.1724 0.3519
vn -0.9196 -0.1732 0.3525
vn -0.9198 -0.1729 0.3522
vn -0.5816 -0.7898 0.1950
vn -0.5833 -0.7881 0.1966
vn -0.5830 -0.7890 0.1942
vn -0.5824 -0.7895 0.1937
vn -0.7023 -0.6741 -0.2289
vn -0.2495 -0.9130 -0.3228
vn -0.2489 -0.9132 -0.3226
vn 0.2351 -0.3050 0.9229
vn 0.5607 0.3940 0.7283
vn 0.5751 -0.7436 0.3410
vn 0.8963 0.4413 0.0429
vn 0.3165 0.9294 -0.1900
vn -0.2756 0.8521 -0.4450
vn 0.3160 0.9295 -0.1901
vn -0.3206 0.8980 -0.3013
vn -0.4665 -0.6841 -0.5607
vn 0.1828 0.3300 -0.9261
vn -0.1082 -0.9457 -0.3067
vn 0.6247 -0.6961 -0.3538
vn 0.6267 -0.6962 -0.3502
vn 0.6268 -0.6963 -0.3496
vn 0.6267 -0.6960 -0.3504
vn 0.9188 0.0904 -0.3841
vn 0.4063 -0.1182 -0.9061
vn 0.2970 -0.4859 -0.8220
vn -0.2873 -0.6163 -0.7332
vn -0.2842 -0.5906 -0.7553
vn -0.2872 -0.6149 -0.7345
vn -0.4387 -0.4604 -0.7717
vn -0.4489 -0.1760 -0.8761
vn -0.4490 -0.1767 -0.8759
vn -0.4488 -0.1761 -0.8761
vn -0.2479 0.0459 -0.9677
vn -0.3173 0.7085 -0.6304
vn -0.5072 0.7290 -0.4597
vn -0.5364 0.7113 -0.4541
vn -0.5368 0.7113 -0.4538
vn -0.5322 0.8363 -0.1316
vn -0.5344 0.8352 -0.1298
vn -0.7185 0.6688 0.1908
vn 0.3194 -0.6254 0.7119
vn -0.0880 -0.9576 0.2744
vn -0.1759 -0.9569 -0.2311
vn -0.1742 -0.9568 -0.2328
vn 0.2792 -0.9396 -0.1980
vn 0.8651 -0.4924 0.0954
vn 0.8652 -0.4920 0.0964
vn 0.8503 -0.0831 0.5196
vn 0.8524 -0.0805 0.5167
vn 0.8523 -0.0806 0.5167
vn 0.8521 -0.0814 0.5169
vn 0.8187 0.4427 0.3658
vn 0.8293 0.5053 0.2386
vn 0.4985 0.8634 0.0780
vn 0.1335 0.9676 0.2144
vn 0.0380 0.9014 0.4313
vn 0.0436 0.9014 0.4308
vn 0.0711 0.8469 0.5270
vn 0.0706 0.8466 0.5276
vn -0.3567 0.2984 0.8853
vn 0.4326 0.7388 -0.5167
vn 0.2811 0.7436 -0.6067
vn 0.3898 0.5962 0.7018
vn 0.1810 0.0953 0.9788
vn 0.1812 0.0947 0.9789
vn 0.4997 -0.3155 0.8067
vn 0.5001 -0.3145 0.8069
vn 0.4935 -0.2791 0.8238
vn 0.5001 -0.3143 0.8069
vn -0.0480 0.0480 0.9977
vn -0.0794 0.0222 0.9966
vn -0.0302 0.0606 0.9977
vn -0.0484 0.0481 0.9977
vn -0.0473 0.0480 0.9977
vn -0.6741 0.6638 0.3241
vn -0.6749 0.6635 0.3229
vn -0.6826 0.6571 0.3198
vn -0.0448 0.9986 -0.0283
vn 0.0512 0.8326 -0.5515
vn -0.8433 0.2686 -0.4656
vn -0.1687 -0.9559 -0.2405
vn -0.1701 -0.9560 -0.2392
vn -0.1728 -0.9568 -0.2340
vn -0.1483 -0.9480 -0.2816
vn -0.1697 -0.9559 -0.2396
vn -0.1731 -0.9570 -0.2326
vn -0.1701 -0.9560 -0.2391
vn 0.5125 -0.7689 -0.3824
vn 0.5166 -0.7643 -0.3860
vn 0.5166 -0.7642 -0.3861
vn 0.1947 0.0794 -0.9776
vn 0.9112 0.0067 -0.4118
vn 0.8935 -0.4253 -0.1441
vn 0.8947 -0.4228 -0.1439
vn 0.8933 -0.4255 -0.1450
vn 0.8939 -0.4243 -0.1449
vn 0.8938 -0.4245 -0.1448
vn 0.0624 -0.0849 -0.9944
vn -0.2833 -0.2050 -0.9369
vn -0.5762 -0.0004 -0.8173
vn -0.5780 -0.0012 -0.8160
vn -0.3491 0.6569 -0.6683
vn -0.3678 0.6271 -0.6866
vn -0.3547 0.6375 -0.6839
vn -0.6258 0.3764 -0.6831
vn -0.6266 0.3762 -0.6826
vn -0.6264 0.3753 -0.6832
vn -0.5292 0.5929 -0.6070
vn -0.1303 0.7810 -0.6108
vn -0.1295 0.7810 -0.6110
vn 0.1738 0.5590 -0.8108
vn 0.5104 0.3575 -0.7821
vn 0.5129 0.3464 -0.7855
vn 0.5139 0.3410 -0.7871
vn 0.7911 0.4967 -0.3569
vn 0.7909 0.4964 -0.3579
vn 0.8673 0.4286 -0.2530
vn 0.8730 0.4225 -0.2435
vn 0.8716 -0.0659 -0.4857
vn 0.8802 -0.1812 -0.4387
vn 0.7443 -0.4423 -0.5004
vn 0.7440 -0.4401 -0.5028
vn 0.6632 -0.7240 0.1898
vn 0.6621 -0.7250 0.1898
vn 0.6631 -0.7241 0.1896
vn 0.6402 -0.7586 -0.1213
vn 0.6387 -0.7601 -0.1200
vn 0.6386 -0.7600 -0.1208
vn 0.4549 -0.8684 0.1976
vn 0.1267 -0.9719 0.1982
vn -0.0801 -0.9872 -0.1376
vn -0.3031 -0.9461 -0.1141
vn -0.4553 -0.8660 -0.2066
vn -0.8161 -0.5551 0.1608
vn -0.8157 -0.5554 0.1616
vn -0.8981 -0.4304 0.0902
vn -0.9425 -0.2084 0.2615
vn -0.6663 -0.5442 -0.5098
vn -0.8281 -0.5547 0.0810
vn -0.9746 -0.1498 -0.1662
vn -0.9740 -0.1515 -0.1682
vn -0.9748 -0.1507 -0.1644
vn -0.9748 -0.1502 -0.1649
vn -0.9748 -0.1492 -0.1659
vn -0.9931 0.0948 -0.0689
vn -0.3867 0.7938 0.4694
vn -0.3881 0.7924 0.4705
vn -0.3864 0.7939 0.4694
vn -0.3865 0.7939 0.4694
vn -0.2173 0.8937 0.3924
vn -0.2175 0.8937 0.3924
vn -0.2176 0.8937 0.3924
vn 0.2932 0.7544 0.5873
vn 0.3027 0.6779 0.6699
vn 0.4819 0.4986 0.7206
vn 0.8067 0.4393 0.3953
vn 0.8067 0.4403 0.3941
vn 0.9008 0.1675 0.4005
vn 0.7715 -0.0359 0.6352
vn 0.7705 -0.0367 0.6364
vn 0.7705 -0.0368 0.6363
vn 0.7584 -0.2474 0.6030
vn 0.7586 -0.2475 0.6027
vn 0.8278 -0.4140 0.3786
vn 0.8278 -0.4143 0.3782
vn 0.8276 -0.4149 0.3781
vn 0.8287 -0.4127 0.3780
vn 0.3568 -0.4730 0.8056
vn 0.3077 -0.6142 0.7267
vn -0.0408 -0.7389 0.6725
vn -0.2940 -0.4187 0.8592
vn -0.2946 -0.4176 0.8595
vn -0.2939 -0.4199 0.8587
vn -0.5577 -0.3972 0.7288
vn -0.2148 0.0653 0.9745
vn 0.0281 0.3917 0.9197
vn -0.0016 0.3827 0.9239
vn 0.0276 0.3911 0.9199
vn 0.3769 0.1060 0.9202
vn -0.1304 -0.2143 0.9680
vn -0.1311 -0.2145 0.9679
vn 0.2309 -0.2165 0.9486
vn 0.4849 0.1679 0.8583
vn 0.0222 0.4796 0.8772
vn 0.0223 0.4798 0.8771
vn 0.0221 0.4760 0.8792
vn 0.3462 0.7906 0.5050
vn 0.2611 0.9620 0.0792
vn 0.4113 0.9009 -0.1388
vn 0.3825 0.8720 -0.3053
vn 0.8420 0.5272 0.1146
vn -0.1514 0.9868 0.0585
vn -0.1526 0.9865 0.0591
vn -0.2274 0.9693 -0.0938
vn -0.2297 0.9694 -0.0864
vn -0.8279 0.4977 -0.2588
vn -0.8285 0.4960 -0.2600
vn -0.8285 0.4964 -0.2591
vn -0.8286 0.4960 -0.2596
vn -0.7090 -0.1736 -0.6835
vn -0.7670 -0.1367 -0.6270
vn -0.6202 -0.6630 0.4193
vn -0.6211 -0.6624 0.4189
vn -0.6208 -0.6626 0.4190
vn -0.5202 -0.6586 -0.5437
vn -0.4073 -0.8163 0.4096
vn -0.0132 -0.9654 -0.2605
vn -0.1147 -0.7404 -0.6623
vn 0.1716 -0.6409 -0.7482
vn 0.4312 -0.6577 -0.6177
vn -0.1124 -0.8403 0.5304
vn 0.5099 -0.7444 0.4311
vn 0.9208 -0.3737 0.1119
vn 0.3922 -0.8670 -0.3074
vn 0.6013 -0.5123 -0.6131
vn 0.5998 -0.5133 -0.6138
vn 0.6013 -0.5112 -0.6141
vn 0.6010 -0.5081 -0.6170
vn 0.6029 -0.5135 -0.6106
vn 0.3128 -0.1067 -0.9438
vn 0.7355 0.6621 0.1441
vn 0.7336 0.6647 0.1410
vn 0.7361 0.6614 0.1438
vn 0.5957 0.8022 0.0389
vn 0.7354 0.6624 0.1429
vn 0.5414 0.1085 -0.8337
vn 0.5409 0.1100 -0.8339
vn 0.5403 0.1086 -0.8344
vn 0.4156 0.8365 -0.3570
vn -0.0529 0.9281 -0.3686
vn -0.0466 0.9263 -0.3739
vn -0.0482 0.9265 -0.3731
vn -0.7472 -0.1499 -0.6475
vn -0.7932 -0.1176 -0.5976
vn -0.3320 -0.6472 -0.6862
vn 0.1852 -0.1328 -0.9737
vn -0.0133 0.3281 -0.9446
s 0
f 1//1 2//1 3//1
f 4//2 1//2 3//2
f 3//3 5//3 4//3
f 6//4 4//4 5//4
f 5//5 7//5 6//5
f 7//6 8//6 9//6
f 7//7 9//7 10//7
f 7//8 10//8 11//8
f 7//9 11//9 6//9
f 11//10 12//10 6//10
f 13//11 12//11 11//11
f 12//12 13//12 14//12
f 15//13 14//13 13//13
f 12//14 14//14 16//14
f 17//15 18//15 12//15
f 19//16 12//16 18//16
f 12//17 16//17 17//17
f 12//18 19//18 4//18
f 20//19 19//19 21//19
f 18//20 21//20 19//20
f 1//21 20//21 22//21
f 1//22 19//22 20//22
f 22//23 23//23 1//23
f 24//24 23//24 25//24
f 24//25 1//25 23//25
f 24//26 26//26 27//26
f 24//27 25//27 26//27
f 28//28 29//28 30//28
f 28//29 24//29 29//29
f 27//30 29//30 24//30
f 24//31 28//31 2//31
f 2//32 28//32 31//32
f 32//33 31//33 28//33
f 28//34 33//34 32//34
f 32//35 34//35 35//35
f 32//36 36//36 34//36
f 32//37 37//37 36//37
f 32//38 33//38 37//38
f 35//39 38//39 32//39
f 7//40 32//40 38//40
f 7//41 39//41 32//41
f 40//42 37//42 33//42
f 32//43 39//43 31//43
f 3//44 31//44 39//44
f 28//45 30//45 40//45
f 28//46 40//46 33//46
f 7//47 38//47 8//47
f 5//48 39//48 7//48
f 4//49 6//49 12//49
f 5//50 3//50 39//50
f 19//51 1//51 4//51
f 31//52 3//52 2//52
f 2//53 1//53 24//53
f 41//54 42//54 43//54
f 44//55 43//55 42//55
f 45//56 43//56 44//56
f 46//57 41//57 43//57
f 43//58 47//58 46//58
f 47//59 48//59 46//59
f 48//60 49//60 46//60
f 49//61 50//61 46//61
f 50//62 51//62 46//62
f 51//63 50//63 52//63
f 52//64 50//64 53//64
f 52//65 53//65 54//65
f 55//66 54//66 53//66
f 53//67 49//67 55//67
f 20//68 21//68 55//68
f 22//69 20//69 55//69
f 49//70 23//70 22//70
f 49//71 22//71 55//71
f 55//72 18//72 17//72
f 18//73 55//73 21//73
f 56//74 36//74 57//74
f 36//75 56//75 34//75
f 58//76 59//76 60//76
f 59//77 58//77 61//77
f 59//78 61//78 62//78
f 59//79 62//79 63//79
f 63//80 64//80 65//80
f 59//81 63//81 65//81
f 48//82 59//82 65//82
f 27//83 26//83 65//83
f 29//84 27//84 65//84
f 48//85 65//85 26//85
f 66//86 60//86 59//86
f 67//87 66//87 59//87
f 66//88 67//88 68//88
f 47//89 67//89 59//89
f 68//90 69//90 70//90
f 68//91 71//91 69//91
f 71//92 67//92 72//92
f 68//93 67//93 71//93
f 73//94 74//94 75//94
f 76//95 74//95 73//95
f 77//96 74//96 76//96
f 78//97 54//97 79//97
f 74//98 54//98 78//98
f 78//99 75//99 74//99
f 80//100 54//100 81//100
f 79//101 54//101 80//101
f 82//102 41//102 83//102
f 41//103 74//103 84//103
f 84//104 83//104 41//104
f 74//105 77//105 84//105
f 74//106 41//106 51//106
f 37//107 40//107 65//107
f 57//108 36//108 37//108
f 57//109 37//109 65//109
f 64//110 57//110 65//110
f 65//111 30//111 29//111
f 30//112 65//112 40//112
f 55//113 16//113 14//113
f 85//114 55//114 14//114
f 85//115 14//115 15//115
f 55//116 85//116 86//116
f 17//117 16//117 55//117
f 86//118 81//118 55//118
f 54//119 55//119 81//119
f 74//120 52//120 54//120
f 51//121 52//121 74//121
f 49//122 53//122 50//122
f 26//123 25//123 48//123
f 48//124 25//124 23//124
f 49//125 48//125 23//125
f 47//126 59//126 48//126
f 67//127 47//127 43//127
f 46//128 51//128 41//128
f 42//129 41//129 82//129
f 87//130 72//130 67//130
f 67//131 45//131 87//131
f 67//132 43//132 45//132
f 10//133 9//133 88//133
f 15//134 13//134 89//134
f 85//135 15//135 89//135
f 11//136 10//136 88//136
f 89//137 11//137 88//137
f 11//138 89//138 13//138
f 90//139 89//139 88//139
f 88//140 91//140 90//140
f 90//141 91//141 92//141
f 93//142 90//142 92//142
f 92//143 94//143 93//143
f 94//144 95//144 96//144
f 94//145 96//145 93//145
f 93//146 97//146 98//146
f 93//147 99//147 97//147
f 93//148 100//148 99//148
f 93//149 96//149 100//149
f 98//150 101//150 93//150
f 98//151 102//151 101//151
f 101//152 102//152 90//152
f 103//153 102//153 104//153
f 105//154 104//154 98//154
f 102//155 98//155 104//155
f 102//156 75//156 78//156
f 75//157 106//157 73//157
f 102//158 106//158 75//158
f 102//159 103//159 106//159
f 79//160 102//160 78//160
f 80//161 102//161 79//161
f 68//162 107//162 66//162
f 107//163 68//163 70//163
f 107//164 70//164 108//164
f 109//165 58//165 60//165
f 109//166 60//166 66//166
f 109//167 66//167 107//167
f 109//168 107//168 110//168
f 57//169 64//169 110//169
f 56//170 57//170 110//170
f 63//171 110//171 64//171
f 110//172 63//172 62//172
f 110//172 62//172 109//172
f 62//173 61//173 109//173
f 111//174 110//174 107//174
f 112//175 111//175 107//175
f 113//176 112//176 114//176
f 107//177 115//177 114//177
f 107//178 114//178 112//178
f 112//179 113//179 116//179
f 116//180 117//180 112//180
f 118//181 119//181 120//181
f 118//182 117//182 119//182
f 118//183 112//183 117//183
f 118//184 121//184 122//184
f 118//185 120//185 121//185
f 118//186 123//186 112//186
f 123//187 118//187 94//187
f 91//188 123//188 94//188
f 124//189 123//189 91//189
f 123//190 124//190 111//190
f 112//191 123//191 111//191
f 111//192 124//192 110//192
f 88//193 110//193 124//193
f 107//194 108//194 115//194
f 58//195 109//195 61//195
f 125//196 76//196 73//196
f 73//197 106//197 125//197
f 98//198 126//198 105//198
f 98//198 127//198 126//198
f 98//199 97//199 127//199
f 128//200 94//200 129//200
f 118//201 122//201 129//201
f 118//202 129//202 94//202
f 94//203 128//203 95//203
f 90//204 93//204 101//204
f 92//205 91//205 94//205
f 91//206 88//206 124//206
f 90//207 102//207 89//207
f 81//208 86//208 89//208
f 102//209 81//209 89//209
f 81//210 102//210 80//210
f 89//211 86//211 85//211
f 35//212 110//212 38//212
f 9//213 8//213 88//213
f 8//214 38//214 110//214
f 88//215 8//215 110//215
f 110//216 35//216 34//216
f 110//217 34//217 56//217
f 130//218 131//218 132//218
f 132//219 133//219 130//219
f 133//220 134//220 130//220
f 134//221 135//221 130//221
f 130//222 135//222 136//222
f 136//223 135//223 137//223
f 137//224 138//224 136//224
f 136//225 138//225 131//225
f 138//226 139//226 131//226
f 131//227 140//227 141//227
f 131//228 142//228 140//228
f 131//229 139//229 142//229
f 141//230 143//230 131//230
f 144//231 145//231 146//231
f 147//232 145//232 144//232
f 148//233 145//233 147//233
f 139//234 145//234 148//234
f 148//235 142//235 139//235
f 149//236 150//236 151//236
f 152//237 146//237 145//237
f 151//238 150//238 153//238
f 154//239 155//239 156//239
f 157//240 155//240 154//240
f 158//241 159//241 160//241
f 161//242 159//242 158//242
f 162//243 159//243 161//243
f 162//244 163//244 159//244
f 162//245 157//245 163//245
f 162//246 155//246 157//246
f 158//247 164//247 161//247
f 159//248 165//248 160//248
f 166//249 167//249 162//249
f 155//250 162//250 167//250
f 168//251 167//251 169//251
f 166//252 169//252 167//252
f 170//253 171//253 168//253
f 172//254 170//254 168//254
f 173//255 172//255 168//255
f 169//256 173//256 168//256
f 171//257 174//257 168//257
f 175//258 168//258 174//258
f 175//259 174//259 176//259
f 175//260 177//260 168//260
f 178//261 168//261 177//261
f 177//262 179//262 178//262
f 69//263 71//263 179//263
f 178//264 179//264 71//264
f 115//265 179//265 114//265
f 179//266 115//266 108//266
f 179//267 108//267 70//267
f 179//268 70//268 69//268
f 45//269 44//269 133//269
f 87//270 45//270 133//270
f 99//271 180//271 97//271
f 127//272 97//272 180//272
f 126//273 127//273 180//273
f 105//274 126//274 180//274
f 104//275 105//275 180//275
f 135//276 104//276 180//276
f 181//277 135//277 180//277
f 180//278 182//278 181//278
f 183//279 181//279 182//279
f 184//280 183//280 182//280
f 182//281 185//281 184//281
f 185//282 186//282 184//282
f 186//283 185//283 187//283
f 150//284 188//284 189//284
f 190//285 191//285 184//285
f 192//286 184//286 191//286
f 184//287 186//287 190//287
f 150//288 189//288 193//288
f 194//289 195//289 196//289
f 175//290 197//290 198//290
f 175//291 198//291 199//291
f 199//292 196//292 195//292
f 175//293 199//293 195//293
f 195//294 200//294 175//294
f 200//295 195//295 119//295
f 120//296 119//296 195//296
f 121//297 120//297 195//297
f 201//298 121//298 195//298
f 201//299 129//299 122//299
f 201//300 122//300 121//300
f 119//301 117//301 200//301
f 128//302 129//302 201//302
f 95//303 128//303 201//303
f 96//304 95//304 201//304
f 202//305 100//305 96//305
f 202//306 96//306 201//306
f 202//307 201//307 203//307
f 202//308 203//308 185//308
f 204//309 205//309 203//309
f 206//310 203//310 205//310
f 203//311 206//311 207//311
f 203//312 207//312 185//312
f 201//313 195//313 203//313
f 195//314 194//314 208//314
f 195//315 208//315 209//315
f 195//316 209//316 204//316
f 195//317 204//317 203//317
f 210//318 187//318 185//318
f 207//319 210//319 185//319
f 202//320 185//320 182//320
f 183//321 184//321 211//321
f 212//322 183//322 211//322
f 145//323 212//323 211//323
f 145//324 138//324 212//324
f 211//325 184//325 145//325
f 212//326 181//326 183//326
f 212//327 137//327 181//327
f 182//328 180//328 202//328
f 202//329 99//329 100//329
f 99//330 202//330 180//330
f 77//331 76//331 125//331
f 134//332 84//332 77//332
f 134//333 77//333 125//333
f 134//334 83//334 84//334
f 114//335 179//335 113//335
f 117//336 116//336 200//336
f 200//337 116//337 113//337
f 200//338 113//338 179//338
f 72//339 87//339 133//339
f 72//340 133//340 178//340
f 71//341 72//341 178//341
f 200//342 179//342 177//342
f 178//343 213//343 168//343
f 178//344 132//344 213//344
f 214//345 213//345 132//345
f 167//346 213//346 214//346
f 175//347 200//347 177//347
f 176//348 197//348 175//348
f 167//349 168//349 213//349
f 155//350 167//350 214//350
f 214//351 131//351 155//351
f 153//352 150//352 215//352
f 193//353 215//353 150//353
f 216//354 184//354 192//354
f 150//355 216//355 188//355
f 149//356 216//356 150//356
f 149//357 184//357 216//357
f 217//358 184//358 149//358
f 218//359 184//359 217//359
f 219//360 184//360 218//360
f 220//361 184//361 219//361
f 152//362 184//362 220//362
f 145//363 184//363 152//363
f 155//364 221//364 156//364
f 155//365 222//365 221//365
f 155//366 143//366 222//366
f 155//367 131//367 143//367
f 138//368 145//368 139//368
f 212//369 138//369 137//369
f 137//370 135//370 181//370
f 135//371 125//371 106//371
f 135//372 106//372 103//372
f 135//373 103//373 104//373
f 125//374 135//374 134//374
f 134//375 82//375 83//375
f 44//376 42//376 82//376
f 82//377 134//377 133//377
f 44//378 82//378 133//378
f 133//379 132//379 178//379
f 132//380 131//380 214//380
f 131//381 130//381 136//381
f 223//382 224//382 225//382
f 225//383 226//383 223//383
f 226//384 227//384 228//384
f 229//385 226//385 228//385
f 230//386 226//386 229//386
f 230//387 223//387 226//387
f 231//388 232//388 226//388
f 227//389 226//389 232//389
f 233//390 234//390 235//390
f 236//391 234//391 233//391
f 237//392 234//392 236//392
f 238//393 234//393 237//393
f 231//394 234//394 238//394
f 226//395 234//395 231//395
f 239//396 235//396 234//396
f 234//397 240//397 241//397
f 234//398 241//398 239//398
f 240//399 234//399 242//399
f 243//399 240//399 242//399
f 244//400 245//400 243//400
f 242//401 244//401 243//401
f 242//402 246//402 247//402
f 242//403 247//403 244//403
f 248//404 246//404 242//404
f 248//405 242//405 249//405
f 250//406 248//406 249//406
f 251//407 250//407 249//407
f 252//408 251//408 249//408
f 253//409 252//409 249//409
f 254//410 253//410 249//410
f 255//411 256//411 254//411
f 257//412 255//412 254//412
f 258//413 257//413 254//413
f 254//414 259//414 253//414
f 259//415 254//415 256//415
f 258//416 260//416 257//416
f 260//417 258//417 261//417
f 258//418 254//418 262//418
f 262//419 223//419 258//419
f 254//420 224//420 262//420
f 254//421 263//421 224//421
f 254//422 249//422 263//422
f 263//423 249//423 242//423
f 242//424 225//424 263//424
f 225//425 242//425 234//425
f 258//426 230//426 264//426
f 223//427 230//427 258//427
f 261//428 258//428 264//428
f 234//429 226//429 225//429
f 225//430 224//430 263//430
f 262//431 224//431 223//431
f 265//432 266//432 267//432
f 265//433 267//433 268//433
f 265//434 268//434 269//434
f 266//435 265//435 270//435
f 271//436 272//436 270//436
f 270//437 272//437 273//437
f 270//438 273//438 266//438
f 271//439 270//439 173//439
f 161//440 274//440 162//440
f 166//441 271//441 169//441
f 274//442 271//442 166//442
f 166//443 162//443 274//443
f 173//444 169//444 271//444
f 173//445 270//445 172//445
f 193//446 275//446 215//446
f 189//447 275//447 193//447
f 188//448 275//448 189//448
f 188//449 276//449 275//449
f 216//450 276//450 188//450
f 277//451 278//451 279//451
f 276//452 278//452 277//452
f 216//453 278//453 276//453
f 216//454 280//454 278//454
f 281//455 282//455 280//455
f 283//456 280//456 282//456
f 284//457 280//457 283//457
f 278//458 280//458 284//458
f 285//459 281//459 286//459
f 282//460 281//460 285//460
f 287//461 286//461 281//461
f 287//462 288//462 289//462
f 281//463 288//463 287//463
f 288//464 290//464 289//464
f 288//465 291//465 290//465
f 292//466 288//466 281//466
f 281//467 293//467 292//467
f 292//468 293//468 294//468
f 294//469 295//469 292//469
f 296//470 292//470 295//470
f 296//471 295//471 297//471
f 265//472 296//472 297//472
f 288//473 296//473 265//473
f 298//474 297//474 295//474
f 299//475 298//475 295//475
f 295//476 300//476 299//476
f 300//477 301//477 299//477
f 301//478 204//478 299//478
f 204//479 301//479 205//479
f 299//480 204//480 209//480
f 206//481 205//481 301//481
f 301//482 207//482 206//482
f 207//483 302//483 210//483
f 301//484 302//484 207//484
f 186//485 187//485 302//485
f 186//486 303//486 190//486
f 302//487 303//487 186//487
f 210//488 302//488 187//488
f 303//489 302//489 304//489
f 280//490 303//490 304//490
f 280//491 304//491 293//491
f 304//492 302//492 294//492
f 294//493 302//493 300//493
f 299//494 209//494 208//494
f 298//495 199//495 198//495
f 301//496 300//496 302//496
f 199//497 298//497 196//497
f 299//498 208//498 194//498
f 299//499 194//499 196//499
f 299//500 196//500 298//500
f 298//501 198//501 197//501
f 197//502 176//502 297//502
f 298//503 197//503 297//503
f 297//504 176//504 174//504
f 171//505 170//505 297//505
f 174//506 171//506 297//506
f 270//507 297//507 170//507
f 300//508 295//508 294//508
f 294//509 293//509 304//509
f 288//510 292//510 296//510
f 281//511 280//511 293//511
f 303//512 192//512 191//512
f 303//513 216//513 192//513
f 303//514 280//514 216//514
f 191//515 190//515 303//515
f 170//516 172//516 270//516
f 164//517 274//517 161//517
f 297//518 270//518 265//518
f 265//519 269//519 305//519
f 265//520 305//520 306//520
f 265//521 306//521 291//521
f 265//522 291//522 288//522
f 307//523 308//523 309//523
f 310//524 309//524 308//524
f 308//525 311//525 310//525
f 156//526 311//526 154//526
f 221//527 311//527 156//527
f 310//528 311//528 221//528
f 221//529 222//529 310//529
f 143//530 310//530 222//530
f 141//531 310//531 143//531
f 312//532 310//532 141//532
f 312//533 313//533 310//533
f 313//534 312//534 314//534
f 312//535 142//535 148//535
f 312//536 140//536 142//536
f 148//537 314//537 312//537
f 315//538 148//538 147//538
f 314//539 148//539 315//539
f 144//540 315//540 147//540
f 279//541 316//541 277//541
f 317//542 165//542 159//542
f 317//543 159//543 163//543
f 318//544 317//544 163//544
f 319//545 311//545 320//545
f 307//546 321//546 322//546
f 322//547 323//547 307//547
f 324//548 325//548 326//548
f 327//549 325//549 324//549
f 321//550 325//550 327//550
f 307//551 325//551 321//551
f 328//552 325//552 307//552
f 307//553 329//553 328//553
f 329//554 330//554 328//554
f 315//555 328//555 330//555
f 219//556 315//556 220//556
f 328//557 315//557 219//557
f 331//558 219//558 218//558
f 328//559 219//559 331//559
f 217//560 331//560 218//560
f 330//561 329//561 309//561
f 330//562 309//562 313//562
f 331//563 325//563 328//563
f 325//564 275//564 276//564
f 275//565 325//565 331//565
f 332//566 277//566 316//566
f 325//567 276//567 326//567
f 277//568 332//568 326//568
f 277//569 326//569 276//569
f 153//570 215//570 275//570
f 151//571 153//571 275//571
f 149//572 151//572 275//572
f 331//573 217//573 149//573
f 331//574 149//574 275//574
f 315//575 144//575 146//575
f 315//576 146//576 152//576
f 315//577 152//577 220//577
f 330//578 314//578 315//578
f 313//579 314//579 330//579
f 312//580 141//580 140//580
f 318//581 163//581 157//581
f 318//581 157//581 154//581
f 333//582 318//582 154//582
f 334//583 333//583 154//583
f 335//584 334//584 154//584
f 336//585 335//585 154//585
f 319//586 336//586 154//586
f 311//587 319//587 154//587
f 337//588 320//588 311//588
f 338//589 337//589 311//589
f 308//590 338//590 311//590
f 310//591 313//591 309//591
f 307//592 309//592 329//592
f 339//593 307//593 323//593
f 308//594 340//594 338//594
f 308//595 341//595 340//595
f 308//596 339//596 341//596
f 308//597 307//597 339//597
f 342//598 343//598 344//598
f 344//599 345//599 342//599
f 345//600 336//600 342//600
f 345//601 335//601 336//601
f 342//602 336//602 319//602
f 320//603 342//603 319//603
f 337//604 342//604 320//604
f 338//605 342//605 337//605
f 346//606 342//606 338//606
f 338//607 340//607 346//607
f 341//608 346//608 340//608
f 347//609 346//609 339//609
f 341//610 339//610 346//610
f 346//611 347//611 343//611
f 347//226 348//226 343//226
f 343//612 228//612 227//612
f 343//613 348//613 228//613
f 227//614 232//614 343//614
f 348//615 349//615 229//615
f 229//616 228//616 348//616
f 264//617 230//617 349//617
f 229//618 349//618 230//618
f 350//619 238//619 237//619
f 236//620 350//620 237//620
f 233//621 350//621 236//621
f 241//622 240//622 351//622
f 351//623 243//623 352//623
f 243//624 351//624 240//624
f 352//625 243//625 245//625
f 247//626 353//626 244//626
f 352//627 245//627 244//627
f 352//628 244//628 353//628
f 353//629 354//629 352//629
f 354//630 355//630 352//630
f 356//631 352//631 355//631
f 355//632 357//632 356//632
f 358//633 356//633 357//633
f 358//634 357//634 267//634
f 268//635 267//635 357//635
f 359//636 358//636 273//636
f 267//637 266//637 273//637
f 267//636 273//636 358//636
f 345//638 358//638 359//638
f 273//639 272//639 359//639
f 360//640 359//640 158//640
f 158//641 274//641 164//641
f 274//642 158//642 359//642
f 271//643 274//643 359//643
f 272//644 271//644 359//644
f 158//645 160//645 360//645
f 361//646 332//646 284//646
f 279//647 278//647 316//647
f 332//648 316//648 278//648
f 278//649 284//649 332//649
f 326//650 361//650 324//650
f 332//651 361//651 326//651
f 362//652 324//652 361//652
f 363//653 362//653 361//653
f 361//654 364//654 363//654
f 363//655 364//655 365//655
f 255//656 363//656 256//656
f 365//657 256//657 363//657
f 256//658 365//658 259//658
f 259//659 365//659 253//659
f 366//660 253//660 365//660
f 366//661 252//661 253//661
f 367//662 251//662 252//662
f 252//663 366//663 367//663
f 251//664 367//664 250//664
f 367//665 248//665 250//665
f 367//666 246//666 248//666
f 367//667 353//667 246//667
f 366//668 368//668 367//668
f 367//669 368//669 354//669
f 368//670 369//670 354//670
f 290//671 291//671 368//671
f 368//672 306//672 369//672
f 306//673 368//673 291//673
f 306//674 305//674 369//674
f 289//675 370//675 287//675
f 286//676 287//676 370//676
f 285//677 286//677 370//677
f 364//678 285//678 370//678
f 364//679 370//679 366//679
f 289//680 290//680 368//680
f 370//681 289//681 368//681
f 368//682 366//682 370//682
f 365//683 364//683 366//683
f 283//684 282//684 364//684
f 361//685 283//685 364//685
f 285//686 364//686 282//686
f 362//687 363//687 371//687
f 372//688 362//688 371//688
f 349//689 372//689 371//689
f 349//690 347//690 372//690
f 371//691 363//691 349//691
f 324//692 362//692 327//692
f 372//693 327//693 362//693
f 321//694 372//694 322//694
f 327//695 372//695 321//695
f 361//328 284//328 283//328
f 317//696 160//696 165//696
f 318//697 360//697 317//697
f 360//698 318//698 333//698
f 160//699 317//699 360//699
f 359//700 360//700 333//700
f 359//701 333//701 334//701
f 268//702 357//702 269//702
f 305//703 269//703 357//703
f 369//704 305//704 357//704
f 345//705 356//705 358//705
f 369//706 357//706 355//706
f 356//707 373//707 352//707
f 356//708 344//708 373//708
f 374//709 373//709 344//709
f 351//710 373//710 374//710
f 354//711 369//711 355//711
f 367//712 354//712 353//712
f 247//713 246//713 353//713
f 351//714 352//714 373//714
f 351//715 239//715 241//715
f 351//716 374//716 239//716
f 235//717 239//717 374//717
f 374//718 233//718 235//718
f 374//719 350//719 233//719
f 374//720 343//720 350//720
f 257//721 363//721 255//721
f 260//722 363//722 257//722
f 261//723 363//723 260//723
f 264//724 363//724 261//724
f 349//725 363//725 264//725
f 350//726 231//726 238//726
f 231//727 343//727 232//727
f 350//728 343//728 231//728
f 347//729 349//729 348//729
f 372//730 323//730 322//730
f 372//731 339//731 323//731
f 347//732 339//732 372//732
f 359//733 334//733 335//733
f 359//734 335//734 345//734
f 345//735 344//735 356//735
f 344//736 343//736 374//736
f 343//737 342//737 346//737
